<svg width="57" height="74" fill="none" xmlns="http://www.w3.org/2000/svg"><path fill-rule="evenodd" clip-rule="evenodd" d="M52.749 28.1c0 2.905-1.398 7.249-4.004 12.552-2.537 5.16-5.958 10.723-9.439 15.893-3.471 5.156-6.95 9.845-9.565 13.25-.365.476-.714.927-1.042 1.35l2.85 2.85c7.303-9.356 25.2-33.542 25.2-45.894C56.749 12.58 44.1 0 28.499 0 12.9 0 .252 12.581.252 28.1c0 12.356 17.903 36.548 25.204 45.9l2.85-2.85c-.33-.424-.68-.877-1.047-1.355-2.615-3.405-6.093-8.094-9.565-13.25-3.48-5.17-6.902-10.732-9.438-15.893-2.607-5.303-4.004-9.647-4.004-12.551C4.251 14.81 15.088 4 28.5 4c13.412 0 24.249 10.81 24.249 24.1Z" fill="#202020"/></svg>